<svg width="48" height="44" viewBox="0 0 48 44" fill="none" xmlns="http://www.w3.org/2000/svg">
<path d="M9.95117 27.733C9.95117 27.8494 9.99741 27.9611 10.0797 28.0434C10.162 28.1257 10.2737 28.1719 10.3901 28.1719H32.9445C33.0609 28.1719 33.1725 28.1257 33.2549 28.0434C33.3372 27.9611 33.3834 27.8494 33.3834 27.733C33.3834 27.6166 33.3372 27.505 33.2549 27.4227C33.1725 27.3404 33.0609 27.2941 32.9445 27.2941H10.3901C10.2737 27.2941 10.162 27.3404 10.0797 27.4227C9.99741 27.505 9.95117 27.6166 9.95117 27.733Z" fill="#FF842F"/>
<path d="M32.9439 30.6154C33.0603 30.6154 33.172 30.5692 33.2543 30.4869C33.3366 30.4046 33.3828 30.2929 33.3828 30.1765C33.3828 30.0601 33.3366 29.9485 33.2543 29.8662C33.172 29.7839 33.0603 29.7376 32.9439 29.7376H29.1196C29.0032 29.7376 28.8915 29.7839 28.8092 29.8662C28.7269 29.9485 28.6807 30.0601 28.6807 30.1765C28.6807 30.2929 28.7269 30.4046 28.8092 30.4869C28.8915 30.5692 29.0032 30.6154 29.1196 30.6154H32.9439Z" fill="#FF842F"/>
<path d="M27.3881 30.1765C27.3881 30.0601 27.3418 29.9485 27.2595 29.8662C27.1772 29.7839 27.0656 29.7376 26.9491 29.7376H10.3901C10.2737 29.7376 10.162 29.7839 10.0797 29.8662C9.99741 29.9485 9.95117 30.0601 9.95117 30.1765C9.95117 30.2929 9.99741 30.4046 10.0797 30.4869C10.162 30.5692 10.2737 30.6154 10.3901 30.6154H26.9491C27.0656 30.6154 27.1772 30.5692 27.2595 30.4869C27.3418 30.4046 27.3881 30.2929 27.3881 30.1765Z" fill="#FF842F"/>
<path d="M46.5118 10.4351C46.8938 10.0077 47.3268 9.5234 47.3268 8.88942C47.3268 8.25545 46.8938 7.77119 46.5118 7.34382C46.2916 7.0974 46.0639 6.84271 45.9962 6.63431C45.9226 6.40752 45.9569 6.055 45.99 5.7141C46.0444 5.15442 46.1061 4.52006 45.7472 4.02686C45.3849 3.52909 44.7591 3.39203 44.207 3.27115C43.8753 3.19848 43.5322 3.12333 43.3442 2.98645C43.1607 2.85291 42.9857 2.55288 42.8166 2.26274C42.5299 1.77097 42.205 1.21367 41.6119 1.02112C41.041 0.835806 40.4622 1.08798 39.9516 1.31068C39.6327 1.44974 39.3029 1.59353 39.0555 1.59353C38.8081 1.59353 38.4784 1.4497 38.1594 1.31068C37.649 1.08808 37.0703 0.835679 36.4991 1.02112C35.906 1.21371 35.5811 1.77098 35.2945 2.26266C35.1253 2.55278 34.9504 2.85282 34.7669 2.98637C34.5788 3.12324 34.2359 3.19839 33.9042 3.27107C33.352 3.39194 32.7262 3.529 32.3639 4.02687C32.0049 4.52007 32.0666 5.15443 32.121 5.71401C32.1542 6.05491 32.1885 6.40743 32.1148 6.63422C32.0471 6.84262 31.8194 7.09741 31.5992 7.34373C31.2172 7.77111 30.7842 8.25554 30.7842 8.88943C30.7851 9.05927 30.816 9.22761 30.8757 9.38663H1.05728C0.776939 9.38685 0.508144 9.49831 0.309913 9.69654C0.111682 9.89477 0.000219566 10.1636 0 10.4439V42.3613C0.000216987 42.6416 0.111678 42.9104 0.30991 43.1087C0.508141 43.3069 0.776939 43.4184 1.05728 43.4186H41.7499C42.0302 43.4184 42.299 43.3069 42.4973 43.1087C42.6955 42.9104 42.807 42.6416 42.8072 42.3613V21.835H44.9529C45.1215 21.8352 45.2855 21.7805 45.4202 21.6793C45.5549 21.578 45.653 21.4356 45.6996 21.2736C45.7462 21.1117 45.7388 20.9389 45.6785 20.7816C45.6182 20.6242 45.5084 20.4907 45.3655 20.4013C43.686 19.3637 42.9484 17.2489 42.6326 15.8243C42.6968 15.7213 42.7576 15.6174 42.8166 15.5162C42.9857 15.2261 43.1606 14.926 43.3442 14.7925C43.5322 14.6556 43.8752 14.5805 44.2069 14.5078C44.7591 14.3869 45.3849 14.2499 45.7471 13.7521C46.1061 13.2589 46.0444 12.6245 45.9901 12.0649C45.9569 11.724 45.9226 11.3715 45.9962 11.1446C46.0639 10.9362 46.2915 10.6815 46.5118 10.4351ZM32.7298 20.4013C32.5863 20.4887 32.4755 20.6211 32.4149 20.7778C32.3542 20.9346 32.347 21.107 32.3943 21.2683C32.4394 21.4319 32.5371 21.5761 32.6723 21.6785C32.8075 21.781 32.9728 21.836 33.1424 21.835H36.6722C36.7349 21.835 36.7968 21.8216 36.8538 21.7957C36.9108 21.7698 36.9617 21.732 37.0029 21.6848C37.056 21.6231 37.8737 20.6654 38.5683 18.7685V36.24C37.8267 36.3468 37.1396 36.6907 36.6097 37.2204C36.0798 37.7501 35.7356 38.4371 35.6286 39.1787H7.17858C7.07161 38.4373 6.72757 37.7504 6.19787 37.2207C5.66818 36.691 4.98128 36.3469 4.23985 36.24V16.5652C4.98128 16.4582 5.66817 16.1142 6.19787 15.5845C6.72757 15.0548 7.07161 14.3679 7.17858 13.6265H32.2841C32.3083 13.6698 32.3349 13.7117 32.3638 13.752C32.7262 14.2499 33.352 14.3869 33.9041 14.5078C34.2358 14.5805 34.5788 14.6556 34.7669 14.7925C34.9504 14.926 35.1253 15.2261 35.2944 15.5162C35.3503 15.612 35.4076 15.7102 35.4681 15.8078C35.1551 17.232 34.4194 19.3568 32.7298 20.4013ZM36.0451 17.0568C36.0936 16.9023 36.1369 16.7514 36.177 16.6035C36.2772 16.6688 36.3855 16.7206 36.4991 16.7578C37.0702 16.9434 37.6489 16.6909 38.1594 16.4683C38.2138 16.4446 38.2684 16.421 38.3231 16.3977C37.7901 18.9806 36.7962 20.4977 36.4576 20.9572H33.477C34.6103 20.1448 35.494 18.8036 36.0451 17.0568V17.0568ZM41.8318 42.3613C41.8318 42.372 41.8297 42.3827 41.8256 42.3927C41.8215 42.4026 41.8155 42.4117 41.8079 42.4193C41.8003 42.4269 41.7912 42.4329 41.7813 42.437C41.7713 42.4411 41.7607 42.4432 41.7499 42.4432H1.05728C1.03559 42.4431 1.01482 42.4344 0.99948 42.4191C0.984142 42.4037 0.975471 42.383 0.975351 42.3613V10.4439C0.975474 10.4222 0.984145 10.4014 0.999483 10.3861C1.01482 10.3708 1.03559 10.3621 1.05728 10.362H31.534C31.5558 10.3865 31.5776 10.4109 31.5993 10.4351C31.8194 10.6814 32.0471 10.9362 32.1148 11.1446C32.1884 11.3714 32.1542 11.724 32.121 12.0648C32.1026 12.2545 32.0837 12.4527 32.0802 12.6511H6.72504C6.59572 12.6512 6.4717 12.7026 6.38026 12.794C6.28881 12.8855 6.23742 13.0095 6.23737 13.1388C6.23664 13.7977 5.97457 14.4294 5.50866 14.8953C5.04276 15.3612 4.41106 15.6233 3.75217 15.624C3.62285 15.624 3.49883 15.6754 3.40739 15.7669C3.31594 15.8583 3.26455 15.9823 3.2645 16.1117V36.6935C3.26455 36.8228 3.31594 36.9469 3.40739 37.0383C3.49883 37.1297 3.62285 37.1811 3.75217 37.1812C4.41106 37.1819 5.04276 37.444 5.50866 37.9099C5.97457 38.3758 6.23664 39.0075 6.23737 39.6664C6.23742 39.7957 6.28881 39.9197 6.38026 40.0112C6.4717 40.1026 6.59572 40.154 6.72504 40.1541H36.0821C36.2115 40.154 36.3355 40.1026 36.4269 40.0112C36.5184 39.9197 36.5698 39.7957 36.5698 39.6664C36.5706 39.0073 36.8328 38.3755 37.2989 37.9096C37.765 37.4437 38.3969 37.1817 39.056 37.1812C39.1853 37.1811 39.3093 37.1297 39.4008 37.0383C39.4922 36.9469 39.5436 36.8228 39.5436 36.6935V18.8111C40.2346 20.6796 41.0399 21.6235 41.0935 21.6848C41.1346 21.7321 41.1854 21.7699 41.2425 21.7958C41.2995 21.8217 41.3615 21.8351 41.4241 21.835H41.8318V42.3613ZM44.6194 20.9572H41.6377C41.2981 20.4963 40.3027 18.9771 39.771 16.3905C39.8312 16.416 39.8915 16.4421 39.9516 16.4683C40.3379 16.6368 40.763 16.8222 41.1945 16.8222C41.3362 16.8229 41.477 16.8012 41.6119 16.7579C41.7207 16.7224 41.8247 16.6734 41.9214 16.6121C41.9611 16.7571 42.0038 16.9051 42.0513 17.0568C42.6014 18.8036 43.485 20.1448 44.6194 20.9572V20.9572ZM45.7846 9.78516C45.4971 10.1068 45.1997 10.4395 45.0686 10.8435C44.9321 11.2635 44.9764 11.7189 45.0192 12.1593C45.0587 12.565 45.0994 12.9845 44.9585 13.1781C44.8143 13.3763 44.3994 13.4672 43.9983 13.555C43.5683 13.6492 43.1236 13.7466 42.7702 14.0038C42.4211 14.2579 42.1938 14.6478 41.974 15.025C41.7654 15.3827 41.5498 15.7525 41.3107 15.8302C41.091 15.9014 40.7102 15.7351 40.3415 15.5743C39.9309 15.3953 39.5063 15.2101 39.0555 15.2101C38.6047 15.2101 38.1802 15.3953 37.7696 15.5743C37.4009 15.7351 37.0196 15.9014 36.8003 15.8302C36.5612 15.7525 36.3456 15.3827 36.137 15.025C35.9172 14.6479 35.6899 14.2579 35.3408 14.0038C34.9873 13.7467 34.5428 13.6492 34.1128 13.5551C33.7117 13.4672 33.2968 13.3763 33.1525 13.178C33.0116 12.9844 33.0524 12.5649 33.0918 12.1592C33.1347 11.7189 33.1789 11.2635 33.0425 10.8435C32.9114 10.4395 32.614 10.1068 32.3265 9.78519C32.0478 9.47334 31.7597 9.15101 31.7597 8.88946C31.7597 8.62791 32.0478 8.30558 32.3265 7.99374C32.614 7.67208 32.9114 7.33938 33.0425 6.93543C33.1789 6.51537 33.1347 6.05999 33.0919 5.61968C33.0524 5.21401 33.0116 4.79453 33.1526 4.60088C33.2968 4.40258 33.7117 4.31171 34.1129 4.2238C34.5428 4.12969 34.9874 4.03226 35.3409 3.77507C35.69 3.52105 35.9173 3.1311 36.1371 2.75401C36.3456 2.39635 36.5612 2.02649 36.8004 1.94887C36.8392 1.93695 36.8796 1.93123 36.9202 1.93192C37.144 1.93192 37.4613 2.07022 37.7696 2.20471C38.1802 2.38378 38.6048 2.56894 39.0556 2.56894C39.5063 2.56894 39.931 2.38378 40.3416 2.20471C40.7103 2.04392 41.0917 1.87753 41.3108 1.94887C41.55 2.02649 41.7656 2.39635 41.9741 2.75401C42.194 3.1311 42.4213 3.52114 42.7704 3.7752C43.1238 4.03247 43.5685 4.12982 43.9984 4.22402C44.3996 4.3118 44.8144 4.4027 44.9587 4.60091C45.0996 4.79456 45.0588 5.21404 45.0194 5.61971C44.9765 6.06014 44.9323 6.51552 45.0687 6.93557C45.1998 7.33952 45.4972 7.67223 45.7847 7.99389C46.0634 8.30563 46.3515 8.62805 46.3515 8.88951C46.3515 9.15098 46.0633 9.4734 45.7846 9.78515V9.78516Z" fill="#FF842F"/>
<path d="M39.1468 3.9713C38.174 3.95329 37.2178 4.22412 36.399 4.74957C35.5802 5.27501 34.9356 6.03146 34.5468 6.92326C34.1579 7.81505 34.0422 8.80213 34.2143 9.75968C34.3864 10.7172 34.8387 11.6022 35.5138 12.3028C35.9734 12.7785 36.524 13.157 37.1329 13.4156C37.7417 13.6743 38.3964 13.8078 39.0579 13.8084C39.0968 13.8084 39.1358 13.8079 39.1748 13.8071C39.3041 13.804 39.4269 13.7496 39.5162 13.656C39.6054 13.5624 39.6538 13.4371 39.6507 13.3078C39.6476 13.1785 39.5933 13.0557 39.4997 12.9665C39.406 12.8772 39.2808 12.8288 39.1515 12.8319C38.3574 12.8512 37.5759 12.6302 36.9095 12.1979C36.2431 11.7656 35.7228 11.1421 35.4167 10.4091C35.1106 9.67611 35.033 8.86775 35.194 8.0899C35.3551 7.31205 35.7473 6.60097 36.3193 6.04978C36.978 5.41528 37.8367 5.02939 38.7485 4.95814C39.6603 4.88689 40.5685 5.1347 41.3177 5.65918C42.067 6.18366 42.6107 6.9522 42.8558 7.83331C43.1009 8.71442 43.0323 9.65333 42.6615 10.4894C42.6091 10.6076 42.6058 10.7419 42.6524 10.8626C42.6989 10.9832 42.7915 11.0805 42.9097 11.1329C43.028 11.1853 43.1622 11.1886 43.2829 11.1421C43.4036 11.0955 43.5008 11.0029 43.5532 10.8847C43.8822 10.1427 44.0225 9.33088 43.9616 8.52154C43.9007 7.7122 43.6405 6.9305 43.2043 6.24608C42.7681 5.56166 42.1693 4.99579 41.4613 4.59889C40.7534 4.20199 39.9582 3.98639 39.1468 3.9713Z" fill="#FF842F"/>
<path d="M41.7922 11.729C41.4354 12.0741 41.0163 12.3484 40.5572 12.5373C40.4973 12.5611 40.4427 12.5967 40.3966 12.6418C40.3505 12.6869 40.3138 12.7407 40.2886 12.8001C40.2635 12.8594 40.2504 12.9232 40.25 12.9877C40.2497 13.0522 40.2621 13.1161 40.2866 13.1758C40.3112 13.2354 40.3473 13.2896 40.3929 13.3352C40.4385 13.3808 40.4927 13.4169 40.5524 13.4414C40.612 13.4659 40.6759 13.4784 40.7404 13.478C40.8049 13.4776 40.8687 13.4645 40.9281 13.4393C41.5009 13.2038 42.0238 12.8618 42.4691 12.4314C42.5622 12.3416 42.6159 12.2185 42.6183 12.0892C42.6207 11.9599 42.5716 11.8349 42.4819 11.7418C42.3921 11.6486 42.269 11.5949 42.1397 11.5926C42.0104 11.5902 41.8854 11.6392 41.7922 11.729Z" fill="#FF842F"/>
<path d="M40.8875 10.1791L40.6465 9.43782L41.2771 8.97968C41.4105 8.88277 41.5098 8.74612 41.5608 8.58931C41.6117 8.4325 41.6117 8.26358 41.5608 8.10677C41.5099 7.94995 41.4106 7.81329 41.2772 7.71637C41.1438 7.61945 40.9832 7.56724 40.8183 7.56723H40.0387L39.7979 6.82591C39.7469 6.66911 39.6477 6.53248 39.5143 6.43558C39.3809 6.33869 39.2202 6.2865 39.0554 6.2865C38.8905 6.2865 38.7299 6.33869 38.5965 6.43558C38.4631 6.53248 38.3638 6.66911 38.3128 6.82591L38.072 7.56723H37.2925C37.1276 7.56724 36.9669 7.61944 36.8336 7.71636C36.7002 7.81328 36.6009 7.94994 36.5499 8.10675C36.499 8.26356 36.499 8.43248 36.5499 8.58929C36.6009 8.74611 36.7002 8.88277 36.8336 8.97968L37.4642 9.43782L37.2233 10.1791C37.1721 10.336 37.172 10.505 37.2229 10.6619C37.2737 10.8189 37.3731 10.9556 37.5065 11.0526C37.64 11.1496 37.8008 11.2018 37.9657 11.2017C38.1307 11.2015 38.2914 11.1492 38.4248 11.052L39.0554 10.5939L39.6859 11.052C39.8193 11.1489 39.98 11.2011 40.1448 11.2011C40.3097 11.2011 40.4704 11.1489 40.6038 11.052C40.7371 10.9551 40.8364 10.8185 40.8874 10.6617C40.9383 10.5049 40.9384 10.336 40.8874 10.1791H40.8875ZM40.0735 8.76908C39.9399 8.86579 39.8405 9.00243 39.7895 9.15929C39.7385 9.31616 39.7387 9.48516 39.7899 9.64194L39.9603 10.1662L39.5143 9.84238C39.3811 9.74516 39.2204 9.69276 39.0554 9.69274C38.8905 9.69272 38.7298 9.74509 38.5965 9.84228L38.1506 10.1662L38.3208 9.64207C38.3721 9.48529 38.3723 9.31628 38.3213 9.15939C38.2703 9.00251 38.1709 8.86586 38.0373 8.76913L37.5912 8.44509H38.1425C38.3074 8.44539 38.4682 8.39332 38.6017 8.29639C38.7351 8.19946 38.8343 8.06267 38.8851 7.90572L39.0554 7.38139L39.2258 7.90582C39.2765 8.06274 39.3757 8.19951 39.5092 8.29643C39.6426 8.39335 39.8033 8.44541 39.9682 8.44512H40.5196L40.0735 8.76908Z" fill="#FF842F"/>
</svg>
