<svg width="42" height="42" viewBox="0 0 42 42" fill="none" xmlns="http://www.w3.org/2000/svg">
<path d="M21.0001 0C9.42057 0 0 9.42052 0 20.9999C0 32.5794 9.42057 41.9999 21.0001 41.9999C32.5794 41.9999 42 32.5794 42 20.9999C42 9.42052 32.5794 0 21.0001 0ZM21.0001 40.4401C10.2807 40.4401 1.55983 31.7193 1.55983 20.9999C1.55983 10.2806 10.2807 1.55983 21.0001 1.55983C31.7193 1.55983 40.4402 10.2806 40.4402 20.9999C40.4402 31.7193 31.7193 40.4401 21.0001 40.4401Z" fill="#FF842F"/>
<path d="M29.1703 26.0711L21.7796 20.6067V9.0442C21.7796 8.61344 21.4304 8.26428 20.9996 8.26428C20.5689 8.26428 20.2197 8.61344 20.2197 9.0442V20.9999C20.2197 21.2473 20.337 21.48 20.536 21.627L28.243 27.3253C28.3824 27.4284 28.545 27.4781 28.706 27.4781C28.9449 27.4781 29.1808 27.3687 29.3338 27.1618C29.5898 26.8155 29.5167 26.3271 29.1703 26.0711Z" fill="#FF842F"/>
</svg>
