<svg width="50" height="43" viewBox="0 0 50 43" fill="none" xmlns="http://www.w3.org/2000/svg">
<path d="M19.0418 16.0911H0.90625V41.5057H19.0418V16.0911Z" stroke="#FF842F" stroke-width="1.4" stroke-linecap="round" stroke-linejoin="round"/>
<path d="M13.7483 23.54C14.8579 23.54 15.7574 22.6405 15.7574 21.531C15.7574 20.4214 14.8579 19.5219 13.7483 19.5219C12.6387 19.5219 11.7393 20.4214 11.7393 21.531C11.7393 22.6405 12.6387 23.54 13.7483 23.54Z" stroke="#FF842F" stroke-width="1.4" stroke-linecap="round" stroke-linejoin="round"/>
<path d="M13.7483 30.7959C14.8579 30.7959 15.7574 29.8964 15.7574 28.7868C15.7574 27.6773 14.8579 26.7778 13.7483 26.7778C12.6387 26.7778 11.7393 27.6773 11.7393 28.7868C11.7393 29.8964 12.6387 30.7959 13.7483 30.7959Z" stroke="#FF842F" stroke-width="1.4" stroke-linecap="round" stroke-linejoin="round"/>
<path d="M47.331 20.2483C47.7577 19.9189 48.0741 19.4676 48.2383 18.9542C48.4025 18.4408 48.4068 17.8897 48.2506 17.3738C47.4778 15.0016 45.4611 12.923 43.0579 12.923H30.9109L32.3636 10.2648C32.9813 9.13726 33.3055 7.87241 33.3063 6.58672V3.95949C33.3042 3.17388 32.9907 2.42114 32.4345 1.86634C31.8782 1.31155 31.1247 0.999997 30.3391 1V1C29.5548 1.00204 28.8032 1.3145 28.2486 1.86907C27.6941 2.42364 27.3816 3.17521 27.3796 3.95949V3.95949C27.3805 5.86588 26.6695 7.70391 25.386 9.11349L19.042 16.0679V41.5056H43.2434C43.9388 41.5066 44.6275 41.3704 45.2702 41.1048C45.9128 40.8391 46.4967 40.4493 46.9884 39.9576C47.4801 39.4659 47.87 38.882 48.1356 38.2393C48.4013 37.5967 48.5375 36.9079 48.5365 36.2125V36.2125C48.536 35.4299 48.2247 34.6794 47.671 34.1262C48.2456 33.4911 48.5624 32.6645 48.5596 31.8081V29.0031C48.5582 28.568 48.4546 28.1393 48.2573 27.7514C48.0601 27.3636 47.7746 27.0274 47.4238 26.77V26.77C47.7607 26.6229 48.0475 26.3809 48.2493 26.0736C48.451 25.7662 48.5588 25.4068 48.5596 25.0391V22.3423C48.5584 21.9158 48.444 21.4973 48.2282 21.1294C48.0123 20.7615 47.7028 20.4574 47.331 20.2483Z" stroke="#FF842F" stroke-width="1.4" stroke-linecap="round" stroke-linejoin="round"/>
</svg>
