<svg width="40" height="43" viewBox="0 0 40 43" fill="none" xmlns="http://www.w3.org/2000/svg">
<path d="M12.3147 19.1823C16.067 19.1823 19.1089 16.1404 19.1089 12.3881C19.1089 8.63574 16.067 5.59387 12.3147 5.59387C8.56237 5.59387 5.52051 8.63574 5.52051 12.3881C5.52051 16.1404 8.56237 19.1823 12.3147 19.1823Z" stroke="#FF842F" stroke-width="1.4" stroke-linecap="round" stroke-linejoin="round"/>
<path d="M12.3148 19.3223C13.8033 19.3223 15.2772 19.6154 16.6524 20.1851C18.0276 20.7547 19.2771 21.5896 20.3297 22.6421C21.3822 23.6947 22.2171 24.9442 22.7867 26.3194C23.3564 27.6946 23.6495 29.1685 23.6495 30.657V41.9918H1V30.657C1 27.6509 2.1942 24.7678 4.31988 22.6421C6.44556 20.5165 9.3286 19.3223 12.3348 19.3223H12.3148Z" stroke="#FF842F" stroke-width="1.4" stroke-linecap="round" stroke-linejoin="round"/>
<path d="M27.3967 14.5884C31.1491 14.5884 34.1909 11.5465 34.1909 7.7942C34.1909 4.04187 31.1491 1 27.3967 1C23.6444 1 20.6025 4.04187 20.6025 7.7942C20.6025 11.5465 23.6444 14.5884 27.3967 14.5884Z" stroke="#FF842F" stroke-width="1.4" stroke-linecap="round" stroke-linejoin="round"/>
<path d="M17.5625 20.6157C18.5397 18.8566 19.9633 17.3862 21.6899 16.3526C23.4165 15.319 25.385 14.7587 27.3971 14.7283V14.7283C30.4032 14.7283 33.2863 15.9225 35.412 18.0482C37.5377 20.1739 38.7319 23.0569 38.7319 26.0631V37.3979H23.6299" stroke="#FF842F" stroke-width="1.4" stroke-linecap="round" stroke-linejoin="round"/>
</svg>
