<svg width="23" height="18" viewBox="0 0 23 18" fill="none" xmlns="http://www.w3.org/2000/svg">
<path d="M14.5557 2.08301H18.7307" stroke="#5A5A5A" stroke-width="0.5" stroke-miterlimit="10" stroke-linecap="round" stroke-linejoin="round"/>
<path d="M9.39355 2.08301H13.5512" stroke="#5A5A5A" stroke-width="0.5" stroke-miterlimit="10" stroke-linecap="round" stroke-linejoin="round"/>
<path d="M4.19629 2.08301H8.34085" stroke="#5A5A5A" stroke-width="0.5" stroke-miterlimit="10" stroke-linecap="round" stroke-linejoin="round"/>
<path d="M19.7223 2.08301H21.7184C21.8054 2.08301 21.875 2.15259 21.875 2.23957V17.2043C21.875 17.2913 21.8054 17.3609 21.7184 17.3609H1.15656C1.06958 17.3609 1 17.2913 1 17.2043V2.23957C1 2.15259 1.06958 2.08301 1.15656 2.08301H3.0962" stroke="#5A5A5A" stroke-width="0.5" stroke-miterlimit="10" stroke-linecap="round" stroke-linejoin="round"/>
<path d="M21.875 5.15771H1" stroke="#5A5A5A" stroke-width="0.5" stroke-miterlimit="10" stroke-linecap="round" stroke-linejoin="round"/>
<path d="M4.07915 8.70189H2.80926C2.71793 8.70189 2.63965 8.62796 2.63965 8.53228V7.26238C2.63965 7.17105 2.71358 7.09277 2.80926 7.09277H4.07915C4.17048 7.09277 4.24876 7.16671 4.24876 7.26238V8.53228C4.24876 8.62361 4.17048 8.70189 4.07915 8.70189Z" stroke="#5A5A5A" stroke-width="0.5" stroke-miterlimit="10" stroke-linecap="round" stroke-linejoin="round"/>
<path d="M7.27544 8.70189H6.00555C5.91422 8.70189 5.83594 8.62796 5.83594 8.53228V7.26238C5.83594 7.17105 5.90987 7.09277 6.00555 7.09277H7.27544C7.36677 7.09277 7.44505 7.16671 7.44505 7.26238V8.53228C7.44505 8.62361 7.37112 8.70189 7.27544 8.70189Z" stroke="#5A5A5A" stroke-width="0.5" stroke-miterlimit="10" stroke-linecap="round" stroke-linejoin="round"/>
<path d="M10.4722 8.70189H9.20232C9.111 8.70189 9.03271 8.62796 9.03271 8.53228V7.26238C9.03271 7.17105 9.10665 7.09277 9.20232 7.09277H10.4722C10.5635 7.09277 10.6418 7.16671 10.6418 7.26238V8.53228C10.6418 8.62361 10.5679 8.70189 10.4722 8.70189Z" stroke="#5A5A5A" stroke-width="0.5" stroke-miterlimit="10" stroke-linecap="round" stroke-linejoin="round"/>
<path d="M13.6729 8.70189H12.403C12.3117 8.70189 12.2334 8.62796 12.2334 8.53228V7.26238C12.2334 7.17105 12.3073 7.09277 12.403 7.09277H13.6729C13.7642 7.09277 13.8425 7.16671 13.8425 7.26238V8.53228C13.8425 8.62361 13.7642 8.70189 13.6729 8.70189Z" stroke="#5A5A5A" stroke-width="0.5" stroke-miterlimit="10" stroke-linecap="round" stroke-linejoin="round"/>
<path d="M16.8697 8.70189H15.5998C15.5085 8.70189 15.4302 8.62796 15.4302 8.53228V7.26238C15.4302 7.17105 15.5041 7.09277 15.5998 7.09277H16.8697C16.961 7.09277 17.0393 7.16671 17.0393 7.26238V8.53228C17.0393 8.62361 16.961 8.70189 16.8697 8.70189Z" stroke="#5A5A5A" stroke-width="0.5" stroke-miterlimit="10" stroke-linecap="round" stroke-linejoin="round"/>
<path d="M20.066 8.70189H18.7961C18.7047 8.70189 18.6265 8.62796 18.6265 8.53228V7.26238C18.6265 7.17105 18.7004 7.09277 18.7961 7.09277H20.066C20.1573 7.09277 20.2356 7.16671 20.2356 7.26238V8.53228C20.2356 8.62361 20.1616 8.70189 20.066 8.70189Z" stroke="#5A5A5A" stroke-width="0.5" stroke-miterlimit="10" stroke-linecap="round" stroke-linejoin="round"/>
<path d="M4.07915 11.9939H2.80926C2.71793 11.9939 2.63965 11.9199 2.63965 11.8243V10.5544C2.63965 10.463 2.71358 10.3848 2.80926 10.3848H4.07915C4.17048 10.3848 4.24876 10.4587 4.24876 10.5544V11.8243C4.24876 11.9199 4.17048 11.9939 4.07915 11.9939Z" stroke="#5A5A5A" stroke-width="0.5" stroke-miterlimit="10" stroke-linecap="round" stroke-linejoin="round"/>
<path d="M7.27544 11.9939H6.00555C5.91422 11.9939 5.83594 11.9199 5.83594 11.8243V10.5544C5.83594 10.463 5.90987 10.3848 6.00555 10.3848H7.27544C7.36677 10.3848 7.44505 10.4587 7.44505 10.5544V11.8243C7.44505 11.9199 7.37112 11.9939 7.27544 11.9939Z" stroke="#5A5A5A" stroke-width="0.5" stroke-miterlimit="10" stroke-linecap="round" stroke-linejoin="round"/>
<path d="M10.4722 11.9939H9.20232C9.111 11.9939 9.03271 11.9199 9.03271 11.8243V10.5544C9.03271 10.463 9.10665 10.3848 9.20232 10.3848H10.4722C10.5635 10.3848 10.6418 10.4587 10.6418 10.5544V11.8243C10.6418 11.9199 10.5679 11.9939 10.4722 11.9939Z" stroke="#5A5A5A" stroke-width="0.5" stroke-miterlimit="10" stroke-linecap="round" stroke-linejoin="round"/>
<path d="M13.6729 11.9939H12.403C12.3117 11.9939 12.2334 11.9199 12.2334 11.8243V10.5544C12.2334 10.463 12.3073 10.3848 12.403 10.3848H13.6729C13.7642 10.3848 13.8425 10.4587 13.8425 10.5544V11.8243C13.8425 11.9199 13.7642 11.9939 13.6729 11.9939Z" stroke="#5A5A5A" stroke-width="0.5" stroke-miterlimit="10" stroke-linecap="round" stroke-linejoin="round"/>
<path d="M16.8697 11.9939H15.5998C15.5085 11.9939 15.4302 11.9199 15.4302 11.8243V10.5544C15.4302 10.463 15.5041 10.3848 15.5998 10.3848H16.8697C16.961 10.3848 17.0393 10.4587 17.0393 10.5544V11.8243C17.0393 11.9199 16.961 11.9939 16.8697 11.9939Z" stroke="#5A5A5A" stroke-width="0.5" stroke-miterlimit="10" stroke-linecap="round" stroke-linejoin="round"/>
<path d="M20.066 11.9939H18.7961C18.7047 11.9939 18.6265 11.9199 18.6265 11.8243V10.5544C18.6265 10.463 18.7004 10.3848 18.7961 10.3848H20.066C20.1573 10.3848 20.2356 10.4587 20.2356 10.5544V11.8243C20.2356 11.9199 20.1616 11.9939 20.066 11.9939Z" stroke="#5A5A5A" stroke-width="0.5" stroke-miterlimit="10" stroke-linecap="round" stroke-linejoin="round"/>
<path d="M4.07915 15.2864H2.80926C2.71793 15.2864 2.63965 15.2124 2.63965 15.1168V13.8469C2.63965 13.7555 2.71358 13.6772 2.80926 13.6772H4.07915C4.17048 13.6772 4.24876 13.7512 4.24876 13.8469V15.1168C4.24876 15.2124 4.17048 15.2864 4.07915 15.2864Z" stroke="#5A5A5A" stroke-width="0.5" stroke-miterlimit="10" stroke-linecap="round" stroke-linejoin="round"/>
<path d="M7.27544 15.2864H6.00555C5.91422 15.2864 5.83594 15.2124 5.83594 15.1168V13.8469C5.83594 13.7555 5.90987 13.6772 6.00555 13.6772H7.27544C7.36677 13.6772 7.44505 13.7512 7.44505 13.8469V15.1168C7.44505 15.2124 7.37112 15.2864 7.27544 15.2864Z" stroke="#5A5A5A" stroke-width="0.5" stroke-miterlimit="10" stroke-linecap="round" stroke-linejoin="round"/>
<path d="M10.4722 15.2864H9.20232C9.111 15.2864 9.03271 15.2124 9.03271 15.1168V13.8469C9.03271 13.7555 9.10665 13.6772 9.20232 13.6772H10.4722C10.5635 13.6772 10.6418 13.7512 10.6418 13.8469V15.1168C10.6418 15.2124 10.5679 15.2864 10.4722 15.2864Z" stroke="#5A5A5A" stroke-width="0.5" stroke-miterlimit="10" stroke-linecap="round" stroke-linejoin="round"/>
<path d="M13.6729 15.2864H12.403C12.3117 15.2864 12.2334 15.2124 12.2334 15.1168V13.8469C12.2334 13.7555 12.3073 13.6772 12.403 13.6772H13.6729C13.7642 13.6772 13.8425 13.7512 13.8425 13.8469V15.1168C13.8425 15.2124 13.7642 15.2864 13.6729 15.2864Z" stroke="#5A5A5A" stroke-width="0.5" stroke-miterlimit="10" stroke-linecap="round" stroke-linejoin="round"/>
<path d="M3.944 3.39193H3.36124C3.27861 3.39193 3.21338 3.32669 3.21338 3.24406V1.14786C3.21338 1.06523 3.27861 1 3.36124 1H3.94835C4.03098 1 4.09622 1.06523 4.09622 1.14786V3.24406C4.09187 3.32234 4.02663 3.39193 3.944 3.39193Z" stroke="#5A5A5A" stroke-width="0.5" stroke-miterlimit="10" stroke-linecap="round" stroke-linejoin="round"/>
<path d="M9.13683 3.39193H8.54972C8.46709 3.39193 8.40186 3.32669 8.40186 3.24406V1.14786C8.40186 1.06523 8.46709 1 8.54972 1H9.13683C9.21946 1 9.28469 1.06523 9.28469 1.14786V3.24406C9.28469 3.32234 9.21946 3.39193 9.13683 3.39193Z" stroke="#5A5A5A" stroke-width="0.5" stroke-miterlimit="10" stroke-linecap="round" stroke-linejoin="round"/>
<path d="M14.3248 3.39193H13.7377C13.6551 3.39193 13.5898 3.32669 13.5898 3.24406V1.14786C13.5898 1.06523 13.6551 1 13.7377 1H14.3248C14.4074 1 14.4727 1.06523 14.4727 1.14786V3.24406C14.4727 3.32234 14.4074 3.39193 14.3248 3.39193Z" stroke="#5A5A5A" stroke-width="0.5" stroke-miterlimit="10" stroke-linecap="round" stroke-linejoin="round"/>
<path d="M19.5133 3.39193H18.9262C18.8436 3.39193 18.7783 3.32669 18.7783 3.24406V1.14786C18.7783 1.06523 18.8436 1 18.9262 1H19.5133C19.5959 1 19.6612 1.06523 19.6612 1.14786V3.24406C19.6612 3.32234 19.5959 3.39193 19.5133 3.39193Z" stroke="#5A5A5A" stroke-width="0.5" stroke-miterlimit="10" stroke-linecap="round" stroke-linejoin="round"/>
</svg>
