<svg width="19" height="28" viewBox="0 0 19 28" fill="none" xmlns="http://www.w3.org/2000/svg">
<path d="M15.3334 27.8514C15.2255 27.8514 15.1219 27.8131 15.0455 27.745C14.9692 27.6769 14.9263 27.5845 14.9263 27.4881V26.1973C14.9263 26.1009 14.9692 26.0085 15.0455 25.9404C15.1219 25.8723 15.2255 25.834 15.3334 25.834C15.4414 25.834 15.545 25.8723 15.6214 25.9404C15.6977 26.0085 15.7406 26.1009 15.7406 26.1973V27.4881C15.7406 27.5845 15.6977 27.6769 15.6214 27.745C15.545 27.8131 15.4414 27.8514 15.3334 27.8514Z" fill="#1077B1"/>
<path d="M18.2298 9.76742H0.856885C0.748894 9.76742 0.645327 9.72915 0.568967 9.66102C0.492606 9.59289 0.449707 9.50049 0.449707 9.40414V2.54297C0.450426 1.86873 0.75095 1.22229 1.28532 0.745527C1.81969 0.268766 2.54424 0.000641218 3.29995 0H15.7867C16.5424 0.000641218 17.267 0.268766 17.8014 0.745527C18.3357 1.22229 18.6363 1.86873 18.637 2.54297V9.40414C18.637 9.50049 18.5941 9.59289 18.5177 9.66102C18.4414 9.72915 18.3378 9.76742 18.2298 9.76742ZM1.26406 9.04086H17.8226V2.54297C17.8226 2.06123 17.6081 1.59922 17.2263 1.25858C16.8445 0.917933 16.3267 0.726563 15.7867 0.726563H3.29995C2.76 0.726563 2.24216 0.917933 1.86036 1.25858C1.47856 1.59922 1.26406 2.06123 1.26406 2.54297V9.04086Z" fill="#1077B1"/>
<path d="M15.7867 26.5609H3.29995C2.54424 26.5602 1.81969 26.2921 1.28532 25.8153C0.75095 25.3386 0.450426 24.6921 0.449707 24.0179V9.4043C0.449707 9.30795 0.492606 9.21555 0.568967 9.14742C0.645327 9.07929 0.748894 9.04102 0.856885 9.04102H18.2298C18.3378 9.04102 18.4414 9.07929 18.5177 9.14742C18.5941 9.21555 18.637 9.30795 18.637 9.4043V24.0179C18.6363 24.6921 18.3357 25.3386 17.8014 25.8153C17.267 26.2921 16.5424 26.5602 15.7867 26.5609ZM1.26406 9.76758V24.0179C1.26478 24.4994 1.47951 24.9611 1.86115 25.3016C2.2428 25.6421 2.76022 25.8337 3.29995 25.8343H15.7867C16.3265 25.8337 16.8439 25.6421 17.2255 25.3016C17.6072 24.9611 17.8219 24.4994 17.8226 24.0179V9.76758H1.26406Z" fill="#1077B1"/>
<path d="M3.75337 27.8514C3.64538 27.8514 3.54181 27.8131 3.46545 27.745C3.38909 27.6769 3.34619 27.5845 3.34619 27.4881V26.1973C3.34619 26.1009 3.38909 26.0085 3.46545 25.9404C3.54181 25.8723 3.64538 25.834 3.75337 25.834C3.86136 25.834 3.96493 25.8723 4.04129 25.9404C4.11765 26.0085 4.16055 26.1009 4.16055 26.1973V27.4881C4.16055 27.5845 4.11765 27.6769 4.04129 27.745C3.96493 27.8131 3.86136 27.8514 3.75337 27.8514Z" fill="#1077B1"/>
<path d="M6.64689 7.18555H2.30366C2.19567 7.18555 2.0921 7.14727 2.01574 7.07914C1.93938 7.01102 1.89648 6.91861 1.89648 6.82227C1.89648 6.72592 1.93938 6.63352 2.01574 6.56539C2.0921 6.49726 2.19567 6.45898 2.30366 6.45898H6.64689C6.75488 6.45898 6.85845 6.49726 6.93481 6.56539C7.01117 6.63352 7.05407 6.72592 7.05407 6.82227C7.05407 6.91861 7.01117 7.01102 6.93481 7.07914C6.85845 7.14727 6.75488 7.18555 6.64689 7.18555Z" fill="#1077B1"/>
<path d="M6.64689 12.3516H2.30366C2.19567 12.3516 2.0921 12.3133 2.01574 12.2452C1.93938 12.177 1.89648 12.0846 1.89648 11.9883C1.89648 11.8919 1.93938 11.7995 2.01574 11.7314C2.0921 11.6633 2.19567 11.625 2.30366 11.625H6.64689C6.75488 11.625 6.85845 11.6633 6.93481 11.7314C7.01117 11.7995 7.05407 11.8919 7.05407 11.9883C7.05407 12.0846 7.01117 12.177 6.93481 12.2452C6.85845 12.3133 6.75488 12.3516 6.64689 12.3516Z" fill="#1077B1"/>
</svg>
