<svg width="19" height="28" viewBox="0 0 19 28" fill="none" xmlns="http://www.w3.org/2000/svg">
<path d="M17.8802 9.76742H0.507275C0.399285 9.76742 0.295718 9.72915 0.219357 9.66102C0.142997 9.59289 0.100098 9.50049 0.100098 9.40414V2.54297C0.100816 1.86873 0.40134 1.22229 0.935709 0.745527C1.47008 0.268766 2.19463 0.000641218 2.95034 0H15.4371C16.1928 0.000641218 16.9174 0.268766 17.4518 0.745527C17.9861 1.22229 18.2866 1.86873 18.2874 2.54297V9.40414C18.2874 9.50049 18.2445 9.59289 18.1681 9.66102C18.0917 9.72915 17.9882 9.76742 17.8802 9.76742ZM0.914453 9.04086H17.473V2.54297C17.473 2.06123 17.2585 1.59922 16.8767 1.25858C16.4949 0.917933 15.9771 0.726563 15.4371 0.726563H2.95034C2.41039 0.726563 1.89255 0.917933 1.51075 1.25858C1.12895 1.59922 0.914453 2.06123 0.914453 2.54297V9.04086Z" fill="#1077B1"/>
<path d="M15.223 28H2.91055C2.16539 27.9993 1.45095 27.7085 0.924042 27.1915C0.397134 26.6744 0.100806 25.9734 0.100098 25.2422V9.39397C0.100098 9.28948 0.142398 9.18928 0.217692 9.11539C0.292987 9.04151 0.395108 9 0.50159 9H17.6319C17.7384 9 17.8405 9.04151 17.9158 9.11539C17.9911 9.18928 18.0334 9.28948 18.0334 9.39397V25.2422C18.0327 25.9734 17.7364 26.6744 17.2095 27.1915C16.6826 27.7085 15.9681 27.9993 15.223 28ZM0.903083 9.78795V25.2422C0.903791 25.7644 1.11552 26.2651 1.49184 26.6343C1.86816 27.0036 2.37835 27.2114 2.91055 27.2121H15.223C15.7552 27.2114 16.2654 27.0036 16.6417 26.6343C17.018 26.2651 17.2297 25.7644 17.2304 25.2422V9.78795H0.903083Z" fill="#1077B1"/>
<circle cx="6" cy="21" r="1.75" stroke="#1077B1" stroke-width="0.5"/>
<circle cx="6" cy="14" r="1.75" stroke="#1077B1" stroke-width="0.5"/>
<circle cx="12" cy="21" r="1.75" stroke="#1077B1" stroke-width="0.5"/>
<circle cx="12" cy="14" r="1.75" stroke="#1077B1" stroke-width="0.5"/>
</svg>
