<svg width="21" height="27" viewBox="0 0 21 27" fill="none" xmlns="http://www.w3.org/2000/svg">
<path d="M19.7568 26H1.15411C0.931851 26 0.75 25.8594 0.75 25.6875V1.3125C0.75 1.14062 0.931851 1 1.15411 1H19.7568C19.979 1 20.1609 1.14062 20.1609 1.3125V25.6875C20.1609 25.8594 19.979 26 19.7568 26Z" stroke="#1077B1" stroke-width="0.6" stroke-miterlimit="10" stroke-linecap="round" stroke-linejoin="round"/>
<path d="M0.75 7.25H20.1609" stroke="#1077B1" stroke-width="0.6" stroke-miterlimit="10" stroke-linecap="round" stroke-linejoin="round"/>
<path d="M0.75 13.5H20.1609" stroke="#1077B1" stroke-width="0.6" stroke-miterlimit="10" stroke-linecap="round" stroke-linejoin="round"/>
<path d="M0.75 19.75H20.1609" stroke="#1077B1" stroke-width="0.6" stroke-miterlimit="10" stroke-linecap="round" stroke-linejoin="round"/>
<path d="M13.0012 4.40088H7.90265C7.68039 4.40088 7.49854 4.26026 7.49854 4.08838V3.5415C7.49854 3.36963 7.68039 3.229 7.90265 3.229H13.0012C13.2235 3.229 13.4053 3.36963 13.4053 3.5415V4.08838C13.4053 4.26026 13.2302 4.40088 13.0012 4.40088Z" stroke="#1077B1" stroke-width="0.6" stroke-miterlimit="10" stroke-linecap="round" stroke-linejoin="round"/>
<path d="M13.0012 10.6821H7.90265C7.68039 10.6821 7.49854 10.5415 7.49854 10.3696V9.82275C7.49854 9.65088 7.68039 9.51025 7.90265 9.51025H13.0012C13.2235 9.51025 13.4053 9.65088 13.4053 9.82275V10.3696C13.4053 10.5415 13.2302 10.6821 13.0012 10.6821Z" stroke="#1077B1" stroke-width="0.6" stroke-miterlimit="10" stroke-linecap="round" stroke-linejoin="round"/>
<path d="M13.0012 16.958H7.90265C7.68039 16.958 7.49854 16.8174 7.49854 16.6455V16.0986C7.49854 15.9268 7.68039 15.7861 7.90265 15.7861H13.0012C13.2235 15.7861 13.4053 15.9268 13.4053 16.0986V16.6455C13.4053 16.8174 13.2302 16.958 13.0012 16.958Z" stroke="#1077B1" stroke-width="0.6" stroke-miterlimit="10" stroke-linecap="round" stroke-linejoin="round"/>
<path d="M13.0012 23.2344H7.90265C7.68039 23.2344 7.49854 23.0937 7.49854 22.9219V22.375C7.49854 22.2031 7.68039 22.0625 7.90265 22.0625H13.0012C13.2235 22.0625 13.4053 22.2031 13.4053 22.375V22.9219C13.4053 23.0937 13.2302 23.2344 13.0012 23.2344Z" stroke="#1077B1" stroke-width="0.6" stroke-miterlimit="10" stroke-linecap="round" stroke-linejoin="round"/>
</svg>
