<svg width="12" height="12" viewBox="0 0 12 12" fill="none" xmlns="http://www.w3.org/2000/svg">
<path d="M11.7338 8.44058C11.4175 7.91955 10.5829 7.68963 10.1135 7.59889C9.25691 7.43337 8.15294 7.44595 7.61784 7.84728C7.4417 7.97947 7.35397 8.25263 7.33348 8.73304C7.33077 8.79634 7.32958 8.85816 7.32925 8.91673C6.42007 8.56558 5.5808 8.04174 4.8645 7.37819L4.54994 7.06541C3.88358 6.35414 3.35726 5.52078 3.00431 4.61821C3.06332 4.61792 3.12563 4.61672 3.18945 4.61405C3.67156 4.59369 3.94573 4.5066 4.0784 4.33172C4.48028 3.80201 4.49483 2.70826 4.33098 1.85932C4.24015 1.38853 4.009 0.551551 3.48191 0.235216C2.95752 -0.0795046 2.14704 -0.00358324 1.82289 0.0437185C1.15418 0.141194 0.597856 0.377477 0.334664 0.675677C0.105318 0.935579 0.0247505 1.67727 0.000777012 1.98406C0.000131696 1.99212 -9.425e-05 2.00042 3.48134e-05 2.00851C0.0394959 4.50741 1.00076 6.89363 2.70669 8.72671C2.70898 8.72913 2.7113 8.73255 2.71366 8.73491L3.1919 9.21248C3.19426 9.21483 3.19664 9.22122 3.19913 9.22341C5.04225 10.9194 7.44076 11.8578 9.95292 11.9223C9.95424 11.9223 9.95559 11.9223 9.95692 11.9223C9.96356 11.9223 9.97021 11.914 9.97686 11.9135C10.285 11.8897 11.0299 11.8016 11.2908 11.574C11.5909 11.3121 11.8287 10.7584 11.9268 10.0928C11.9744 9.77 12.0508 8.96297 11.7338 8.44058ZM11.4161 10.0174C11.3389 10.5405 11.1522 11.0097 10.9516 11.1848C10.8617 11.2589 10.3951 11.3541 9.94888 11.3898C7.56966 11.3497 5.29863 10.4441 3.55237 8.83877L3.08129 8.37031C1.46729 6.63431 0.556846 4.37699 0.516514 2.012C0.552168 1.56947 0.64761 1.10646 0.721854 1.01715C0.898316 0.817228 1.37075 0.631312 1.89749 0.554519C2.44998 0.473951 2.95539 0.521188 3.21636 0.677839C3.46816 0.828972 3.70109 1.31916 3.82421 1.95715C3.9858 2.79445 3.92043 3.67446 3.67266 4.01248C3.57261 4.08276 3.11895 4.12041 2.69343 4.09495C2.64722 4.0833 2.59731 4.08408 2.54875 4.10028C2.50635 4.11444 2.47008 4.13858 2.44162 4.16916C2.40061 4.21127 2.37364 4.26748 2.36906 4.33072C2.36512 4.38522 2.37851 4.43691 2.40442 4.48063C2.76128 5.52385 3.33216 6.49001 4.07469 7.31131C4.08347 7.32534 4.09373 7.33873 4.10548 7.35125C4.18198 7.43279 4.26016 7.51281 4.33982 7.59109C4.41871 7.67049 4.49925 7.74835 4.58149 7.82456C4.59411 7.83624 4.60756 7.84644 4.62163 7.85512C5.44732 8.59313 6.41865 9.16075 7.46725 9.51545C7.51094 9.54127 7.56257 9.55459 7.61706 9.55049C7.68072 9.54588 7.73722 9.51842 7.77936 9.47686C7.78368 9.4728 7.78756 9.46834 7.79162 9.46399C7.79272 9.46273 7.79385 9.46147 7.79498 9.46018C7.81772 9.43463 7.83628 9.40468 7.8477 9.37013C7.86374 9.32163 7.86438 9.27188 7.85264 9.2258C7.82724 8.8038 7.86483 8.35421 7.93511 8.25489C8.27784 8.00641 9.16863 7.94214 10.0157 8.10582C10.6523 8.22885 11.1416 8.45978 11.2925 8.70848C11.4496 8.96732 11.4969 9.46889 11.4161 10.0174Z" fill="#242424"/>
</svg>
