<svg width="48" height="61" viewBox="0 0 48 61" fill="none" xmlns="http://www.w3.org/2000/svg">
<path d="M42.9475 39.1025H5.00684V61H42.9475V39.1025Z" fill="#699BBA"/>
<path d="M48 39.1026H0L23.977 15.8711L48 39.1026Z" fill="#699BBA"/>
<path d="M18.2351 52.6274C18.2351 52.6274 5.00638 39.1026 14.6523 18.6312L37.2514 0C37.2514 0 23.0581 33.2142 37.1136 43.3808L18.2351 52.6274Z" fill="white"/>
<path d="M23.1042 9.29297C11.575 29.7643 18.6946 43.9332 23.6094 49.4536" stroke="#699BBA" stroke-width="3" stroke-miterlimit="10"/>
<path d="M30.1317 10.8574C22.323 24.4743 25.4465 40.2533 31.7393 45.1297" stroke="#699BBA" stroke-width="3" stroke-miterlimit="10"/>
<path d="M31.0046 53.1333L30.4534 53.5013L28.6161 50.7871L38.1242 44.6687L36.5166 42.1846L17.0869 54.5594L18.6946 57.0435L27.0084 51.8452L28.8917 54.6054L28.3405 54.9734L31.7395 59.9877C32.2448 60.7238 33.2553 60.9538 34.0362 60.4018C34.7711 59.8957 35.0008 58.8837 34.4496 58.1016L31.0046 53.1333Z" fill="#699BBA"/>
<path d="M35.8963 40.7274L16.8477 53.2451L18.4856 55.7452L37.5343 43.2275L35.8963 40.7274Z" fill="#FFC8A3"/>
<path d="M29.4429 48.0331L27.8467 49.1182L30.4521 52.9625L32.0483 51.8774L29.4429 48.0331Z" fill="#FFC8A3"/>
<path d="M35.3687 57.7807L34.7716 58.1947C34.1745 58.6087 33.3936 58.4247 32.9802 57.8727L29.3975 52.5823L32.1075 50.7422L35.6903 56.0325C36.1037 56.5846 35.9199 57.4126 35.3687 57.7807Z" fill="#FFC8A3"/>
<path d="M37.5 33C38.0568 34.6705 39.3295 35.9432 41 36.5C39.3295 37.0568 38.0568 38.3295 37.5 40C36.9432 38.3295 35.6705 37.0568 34 36.5C35.6705 35.9432 36.9432 34.6705 37.5 33Z" fill="white"/>
<path d="M11.5 50C11.8977 51.1932 12.8068 52.1023 14 52.5C12.8068 52.8977 11.8977 53.8068 11.5 55C11.1023 53.8068 10.1932 52.8977 9 52.5C10.1932 52.0455 11.1023 51.1364 11.5 50Z" fill="white"/>
</svg>
