<svg width="102" height="61" viewBox="0 0 102 61" fill="none" xmlns="http://www.w3.org/2000/svg">
<path d="M42.9475 39.1025H5.00684V61H42.9475V39.1025Z" fill="#006CAE"/>
<path d="M48 39.1026H0L23.977 15.8711L48 39.1026Z" fill="#006CAE"/>
<path d="M18.2351 52.6274C18.2351 52.6274 5.00638 39.1026 14.6523 18.6312L37.2514 0C37.2514 0 23.0581 33.2142 37.1136 43.3808L18.2351 52.6274Z" fill="white"/>
<path d="M23.1042 9.2926C11.575 29.7639 18.6946 43.9329 23.6094 49.4532" stroke="#006CAE" stroke-width="3" stroke-miterlimit="10"/>
<path d="M30.1317 10.8567C22.323 24.4736 25.4465 40.2526 31.7393 45.1289" stroke="#006CAE" stroke-width="3" stroke-miterlimit="10"/>
<path d="M31.0046 53.1335L30.4534 53.5016L28.6161 50.7874L38.1242 44.669L36.5166 42.1848L17.0869 54.5596L18.6946 57.0438L27.0084 51.8454L28.8917 54.6056L28.3405 54.9737L31.7395 59.988C32.2448 60.724 33.2553 60.9541 34.0362 60.402C34.7711 59.896 35.0008 58.8839 34.4496 58.1019L31.0046 53.1335Z" fill="#006CAE"/>
<path d="M35.8963 40.7273L16.8477 53.245L18.4856 55.7451L37.5343 43.2274L35.8963 40.7273Z" fill="#FF7F27"/>
<path d="M29.4429 48.0326L27.8467 49.1177L30.4521 52.962L32.0483 51.8769L29.4429 48.0326Z" fill="#FF7F27"/>
<path d="M35.3687 57.7798L34.7716 58.1938C34.1745 58.6079 33.3936 58.4238 32.9802 57.8718L29.3975 52.5815L32.1075 50.7413L35.6903 56.0317C36.1037 56.5837 35.9199 57.4118 35.3687 57.7798Z" fill="#FF7F27"/>
<path d="M37.5 33C38.0568 34.6705 39.3295 35.9432 41 36.5C39.3295 37.0568 38.0568 38.3295 37.5 40C36.9432 38.3295 35.6705 37.0568 34 36.5C35.6705 35.9432 36.9432 34.6705 37.5 33Z" fill="white"/>
<path d="M11.5 50C11.8977 51.1932 12.8068 52.1023 14 52.5C12.8068 52.8977 11.8977 53.8068 11.5 55C11.1023 53.8068 10.1932 52.8977 9 52.5C10.1932 52.0455 11.1023 51.1364 11.5 50Z" fill="white"/>
<path d="M51.2109 43.3434C51.2109 43.6822 51.1451 44.0021 51.0133 44.3033C50.891 44.6044 50.7169 44.8679 50.491 45.0937C50.2652 45.3196 50.0017 45.4984 49.7006 45.6301C49.3994 45.7619 49.0748 45.8278 48.7266 45.8278C48.3784 45.8278 48.049 45.7619 47.7385 45.6301C47.4373 45.4984 47.1738 45.3196 46.948 45.0937C46.7221 44.8679 46.5433 44.6044 46.4116 44.3033C46.2798 44.0021 46.214 43.6822 46.214 43.3434C46.214 42.9952 46.2798 42.6705 46.4116 42.3694C46.5433 42.0589 46.7221 41.7907 46.948 41.5648C47.1738 41.339 47.4373 41.1602 47.7385 41.0284C48.049 40.8967 48.3784 40.8308 48.7266 40.8308C49.0748 40.8308 49.3994 40.8967 49.7006 41.0284C50.0017 41.1602 50.2652 41.339 50.491 41.5648C50.7169 41.7907 50.891 42.0589 51.0133 42.3694C51.1451 42.6705 51.2109 42.9952 51.2109 43.3434ZM50.731 47.2535L49.6582 60.8328L46.9339 60.5505L46.7645 47.0417L50.731 47.2535Z" fill="#FF7F27"/>
<path d="M60.8756 56.5833C60.8756 57.6762 60.4787 58.5505 59.685 59.2062C58.9027 59.8504 57.7868 60.1726 56.3373 60.1726C55.0374 60.1726 53.8755 59.9252 52.8517 59.4306V56.9975C53.4383 57.2506 54.0423 57.4864 54.6635 57.705C55.2962 57.912 55.9232 58.0156 56.5444 58.0156C57.1886 58.0156 57.643 57.8948 57.9076 57.6532C58.1837 57.4001 58.3217 57.0838 58.3217 56.7041C58.3217 56.3935 58.2125 56.1289 57.9939 55.9104C57.7868 55.6918 57.505 55.4905 57.1483 55.3064C56.7917 55.1109 56.3833 54.9038 55.9232 54.6852C55.6356 54.5472 55.325 54.3861 54.9914 54.202C54.6578 54.0065 54.3357 53.7707 54.025 53.4946C53.7259 53.207 53.4786 52.8618 53.283 52.4592C53.0875 52.0566 52.9897 51.5734 52.9897 51.0097C52.9897 49.9053 53.3636 49.0483 54.1113 48.4386C54.8591 47.8174 55.8772 47.5068 57.1656 47.5068C57.8098 47.5068 58.4195 47.5816 58.9947 47.7311C59.5814 47.8807 60.1911 48.0935 60.8238 48.3696L59.9783 50.4058C59.4146 50.1757 58.9084 49.9974 58.4598 49.8708C58.0111 49.7443 57.551 49.681 57.0793 49.681C56.5847 49.681 56.205 49.7961 55.9404 50.0261C55.6759 50.2562 55.5436 50.5553 55.5436 50.9234C55.5436 51.3606 55.7391 51.7057 56.1303 51.9588C56.5214 52.2119 57.1023 52.5225 57.8731 52.8906C58.5058 53.1897 59.0407 53.5003 59.4779 53.8224C59.9265 54.1445 60.2717 54.5242 60.5132 54.9613C60.7548 55.3984 60.8756 55.9391 60.8756 56.5833ZM65.4791 49.5602C65.4791 50.0204 65.4619 50.4633 65.4274 50.8889C65.4044 51.3146 65.3814 51.6137 65.3583 51.7862H65.4964C65.7955 51.3031 66.1809 50.9522 66.6525 50.7336C67.1242 50.5151 67.6476 50.4058 68.2228 50.4058C69.2467 50.4058 70.0634 50.6819 70.6731 51.234C71.2943 51.7747 71.6049 52.649 71.6049 53.8569V60H69.0338V54.4954C69.0338 53.1379 68.5277 52.4592 67.5153 52.4592C66.7446 52.4592 66.2096 52.7296 65.9105 53.2702C65.6229 53.7994 65.4791 54.5644 65.4791 55.5653V60H62.908V46.8856H65.4791V49.5602ZM75.5432 46.8856C75.9228 46.8856 76.2507 46.9776 76.5268 47.1617C76.8029 47.3342 76.9409 47.6621 76.9409 48.1453C76.9409 48.6169 76.8029 48.9448 76.5268 49.1288C76.2507 49.3129 75.9228 49.4049 75.5432 49.4049C75.152 49.4049 74.8184 49.3129 74.5423 49.1288C74.2778 48.9448 74.1455 48.6169 74.1455 48.1453C74.1455 47.6621 74.2778 47.3342 74.5423 47.1617C74.8184 46.9776 75.152 46.8856 75.5432 46.8856ZM76.8201 50.5783V60H74.249V50.5783H76.8201ZM84.8559 50.4058C85.8683 50.4058 86.6793 50.6819 87.289 51.234C87.8987 51.7747 88.2036 52.649 88.2036 53.8569V60H85.6324V54.4954C85.6324 53.8167 85.5116 53.3105 85.2701 52.9769C85.0285 52.6318 84.6431 52.4592 84.1139 52.4592C83.3317 52.4592 82.7967 52.7296 82.5091 53.2702C82.2215 53.7994 82.0777 54.5644 82.0777 55.5653V60H79.5066V50.5783H81.4738L81.8189 51.7862H81.957C82.2561 51.3031 82.6644 50.9522 83.1821 50.7336C83.7113 50.5151 84.2692 50.4058 84.8559 50.4058ZM94.7302 50.4058C96.0301 50.4058 97.0597 50.7796 97.819 51.5274C98.5782 52.2636 98.9578 53.3162 98.9578 54.6852V55.9276H92.8838C92.9068 56.6524 93.1196 57.2218 93.5223 57.636C93.9364 58.0501 94.5058 58.2572 95.2306 58.2572C95.8403 58.2572 96.3925 58.1996 96.8871 58.0846C97.3818 57.9581 97.8937 57.7682 98.4229 57.5152V59.4996C97.9628 59.7297 97.4738 59.8965 96.9562 60C96.45 60.115 95.8345 60.1726 95.1098 60.1726C94.1665 60.1726 93.3324 60 92.6077 59.6549C91.883 59.2983 91.3135 58.7633 90.8994 58.0501C90.4852 57.3369 90.2782 56.4396 90.2782 55.3582C90.2782 54.2538 90.4622 53.3393 90.8303 52.6145C91.21 51.8783 91.7334 51.3261 92.4006 50.958C93.0679 50.5898 93.8444 50.4058 94.7302 50.4058ZM94.7474 52.2349C94.2528 52.2349 93.8386 52.3959 93.505 52.718C93.1829 53.0402 92.9931 53.5406 92.9356 54.2193H96.542C96.5305 53.6441 96.381 53.1724 96.0934 52.8043C95.8058 52.4247 95.3571 52.2349 94.7474 52.2349Z" fill="#006CAE"/>
</svg>
