<svg width="17" height="11" viewBox="0 0 17 11" fill="none" xmlns="http://www.w3.org/2000/svg">
<path d="M16.9844 10.7958C16.9937 10.7674 17 10.7374 17 10.7058V0.29378C17 0.262031 16.9937 0.231849 16.9842 0.203236C16.9828 0.199316 16.9821 0.195396 16.9805 0.191476C16.9679 0.157963 16.9493 0.127782 16.926 0.101324C16.9245 0.09956 16.9243 0.0974043 16.9227 0.0956404C16.9217 0.0946605 16.9205 0.0942683 16.9195 0.0932884C16.8947 0.0670265 16.8653 0.0458603 16.8324 0.0299855C16.8298 0.0288096 16.8278 0.0272417 16.8253 0.0260658C16.7941 0.0121509 16.7602 0.0043117 16.7245 0.00195989C16.721 0.0017639 16.7176 0.000979756 16.7141 0.000979756C16.7107 0.000783772 16.7077 0 16.7044 0H0.296004C0.292651 0 0.289496 0.000783772 0.286143 0.000979756C0.282988 0.00117574 0.279833 0.0017639 0.276678 0.00195989C0.240589 0.0043117 0.206078 0.012347 0.174526 0.0264579C0.172554 0.0272418 0.170976 0.0286136 0.169004 0.0293975C0.135479 0.0452723 0.105702 0.0668304 0.0806566 0.0934843C0.0796705 0.0944642 0.0784873 0.0946605 0.0775012 0.0956404C0.0759236 0.0972083 0.0757264 0.0993641 0.0741488 0.101128C0.0508787 0.127586 0.0321443 0.157963 0.0195232 0.191476C0.0179456 0.195396 0.0171568 0.199316 0.0157763 0.203432C0.00631052 0.232045 0 0.262227 0 0.293976V10.7062C0 10.7384 0.0065077 10.7689 0.0161707 10.7979C0.0175511 10.8019 0.01834 10.8056 0.0197204 10.8095C0.0325387 10.8432 0.0514703 10.8736 0.0749376 10.9C0.076318 10.9016 0.0767125 10.9036 0.0780929 10.9051C0.0792761 10.9065 0.0808537 10.9073 0.0822342 10.9087C0.0918972 10.9187 0.102546 10.9275 0.11359 10.9361C0.11852 10.9398 0.122858 10.9443 0.127986 10.9479C0.141001 10.9569 0.155003 10.9641 0.169398 10.9708C0.172948 10.9724 0.176103 10.9749 0.179653 10.9763C0.215347 10.9914 0.254591 11 0.295806 11H16.704C16.7452 11 16.7845 10.9916 16.8202 10.9763C16.8257 10.9739 16.8308 10.9704 16.8361 10.9677C16.8484 10.9616 16.8606 10.9553 16.8718 10.9477C16.8777 10.9436 16.8831 10.9383 16.8888 10.9338C16.8988 10.9257 16.9087 10.9177 16.9174 10.9085C16.9189 10.9069 16.9207 10.9057 16.9223 10.9042C16.9239 10.9024 16.9243 10.9 16.9259 10.8983C16.9489 10.872 16.9675 10.8418 16.9801 10.8085C16.9821 10.8042 16.983 10.8001 16.9844 10.7958ZM0.59181 0.960518L5.57063 5.48011L0.59181 10.0358V0.960518ZM10.7963 5.25865C10.7758 5.27197 10.7541 5.28314 10.737 5.30196C10.7305 5.30901 10.7283 5.31822 10.7226 5.32567L8.5001 7.34313L1.0584 0.587756H15.9418L10.7963 5.25865ZM6.00921 5.87815L8.30053 7.95813C8.35713 8.00948 8.42851 8.03515 8.5001 8.03515C8.57168 8.03515 8.64307 8.00948 8.69947 7.95813L10.9624 5.90402L15.9404 10.412H1.05406L6.00921 5.87815ZM11.4012 5.50578L16.4084 0.960518V10.0405L11.4012 5.50578Z" fill="#242424"/>
</svg>
