<svg width="67" height="69" viewBox="0 0 67 69" fill="none" xmlns="http://www.w3.org/2000/svg">
<path d="M26.8506 60.2106C22.5019 60.2106 18.6083 57.584 16.9902 53.5935C16.5857 53.6945 16.1306 53.745 15.6755 53.745C12.5404 53.745 10.0121 51.2194 10.0121 48.0876C10.0121 47.633 10.0626 47.2289 10.1638 46.7743C4.14642 45.0064 0 39.5005 0 33.1359C0 28.8929 1.92151 24.8014 5.2083 22.1242C4.50038 21.114 4.24755 20.2048 4.24755 18.9925C4.24755 17.3761 4.60151 16.2143 5.30943 15.4566C5.56226 15.204 5.96679 15.204 6.27019 15.4566C6.52302 15.7092 6.52302 16.1133 6.27019 16.4163C5.81509 16.8709 5.56226 17.7802 5.56226 19.043C5.56226 20.1543 5.81509 20.8109 6.62415 21.8717L7.02868 22.4273L6.47245 22.8314C3.23623 25.256 1.31472 29.0444 1.31472 33.1359C1.31472 39.0964 5.36 44.2487 11.1751 45.6125L11.883 45.7641L11.6302 46.5217C11.4279 47.0269 11.3268 47.532 11.3268 48.0371C11.3268 50.4112 13.2989 52.3812 15.6755 52.3812C16.1811 52.3812 16.6868 52.2802 17.1419 52.1286L17.7992 51.8761L18.0015 52.5327C19.2657 56.3212 22.8053 58.8468 26.8 58.8468C29.7328 58.8468 32.4128 57.5335 34.2332 55.1594L34.6377 54.6542L35.1434 55.0078C36.357 55.816 37.7728 56.2706 39.2392 56.2706C40.3517 56.2706 41.4136 56.0181 42.3743 55.5635C42.7283 55.4119 43.0823 55.5635 43.2845 55.8665C43.4362 56.2201 43.2845 56.5737 42.9811 56.7758C41.8181 57.3314 40.554 57.6345 39.2392 57.6345C37.7223 57.6345 36.2053 57.2304 34.8906 56.4727C32.9185 58.8468 29.9857 60.2106 26.8506 60.2106ZM44.6498 55.5635C44.4475 55.5635 44.2958 55.513 44.1441 55.3614C43.8913 55.1089 43.9419 54.6542 44.1947 54.4017C45.7117 53.0378 46.5713 51.0173 46.5713 48.9969C46.5713 48.8958 46.5713 48.7443 46.5713 48.6433L46.5208 47.9866L47.1781 47.9361C54.1057 47.6835 59.5162 42.0261 59.5162 35.1059C59.5162 32.2267 58.5555 29.4991 56.7857 27.1755L56.3811 26.6704L56.8868 26.2663C57.7464 25.6096 58.2015 24.6499 58.2015 23.5891C58.2015 22.0737 57.2408 20.7604 55.8249 20.3563L55.3192 20.2048V19.6996C55.3192 19.5481 55.3192 19.4471 55.3192 19.2955C55.3192 14.0928 51.0717 9.84972 45.8634 9.84972C45.0543 9.84972 44.2958 9.95074 43.5374 10.1528L42.9811 10.2538L42.8294 9.59715C42.0204 5.75821 39.4415 2.72746 35.8513 1.41414C35.4974 1.31312 35.3457 0.909016 35.4468 0.555429C35.5479 0.201842 35.9525 0.0503048 36.3064 0.15133C40.0989 1.56568 42.9306 4.69745 43.9925 8.63742C44.6498 8.53639 45.3072 8.43537 46.0151 8.43537C51.9313 8.43537 56.7857 13.2341 56.7857 19.1945C58.5049 19.9522 59.6174 21.6191 59.6174 23.5386C59.6174 24.8014 59.1117 25.9632 58.2521 26.8219C59.9713 29.2465 60.8815 32.0752 60.8815 35.0554C60.8815 42.4808 55.2181 48.5928 47.886 49.1989C47.8355 51.573 46.8241 53.7955 45.0543 55.3614C44.9532 55.4624 44.8015 55.5635 44.6498 55.5635Z" fill="#FF842F"/>
<path d="M43.1836 13.9414L36.61 0.4041C36.5089 0.20205 36.3572 0.101025 36.1549 0C35.9526 0 35.7504 0 35.5987 0.101025C35.3964 0.151537 35.2447 0.303075 35.1941 0.505124C35.1436 0.707174 35.1436 0.909224 35.2447 1.06076L41.8183 14.5981C42.6273 16.265 41.9194 18.2855 40.2507 19.0937L17.3949 30.1054C16.5858 30.5095 15.6756 30.56 14.816 30.257C13.9564 29.9539 13.299 29.3477 12.8945 28.5395L6.57376 15.4063C6.3715 15.0527 5.96697 14.9012 5.56244 15.0527C5.20848 15.2548 5.05678 15.6589 5.20848 16.063L11.5292 29.1962C12.3383 30.8631 14.0575 31.9239 15.9285 31.9239C16.6364 31.9239 17.3443 31.7723 18.0523 31.4187L40.9081 20.407C43.3353 19.2958 44.3466 16.366 43.1836 13.9414Z" fill="#FF842F"/>
<path d="M42.7039 14.7349L42.2651 13.8247L12.0133 28.3778L12.4521 29.2881L42.7039 14.7349Z" fill="#FF842F"/>
<path d="M41.5311 12.315L41.0923 11.4048L10.8404 25.9579L11.2793 26.8681L41.5311 12.315Z" fill="#FF842F"/>
<path d="M29.6317 30.459C29.1766 30.459 28.7215 30.358 28.2664 30.2065C27.2045 29.8529 26.3449 29.0952 25.8898 28.0849L25.2324 26.6706L32.7668 23.0337L33.4241 24.448C33.9298 25.4583 33.9803 26.5696 33.6264 27.6303C33.2724 28.6911 32.5139 29.5498 31.5026 30.0044C30.8452 30.3075 30.2385 30.459 29.6317 30.459ZM26.4966 27.1252L26.7494 27.6303C27.1034 28.388 27.7607 28.9942 28.5698 29.2467C29.3788 29.5498 30.2385 29.4993 30.9969 29.0952C31.7554 28.7416 32.3622 28.0849 32.6151 27.2767C32.9185 26.4685 32.8679 25.6098 32.4634 24.8521L32.2105 24.347L26.4966 27.1252Z" fill="#FF842F"/>
<path d="M32.5648 28.6909L50.6675 67.1309C50.9708 67.7876 50.6675 68.5452 50.0607 68.8483C49.4033 69.1514 48.6448 68.8483 48.3414 68.2422L30.2388 29.8022C30.2388 29.8022 31.6041 29.8527 32.5648 28.6909Z" fill="#FF842F"/>
<path d="M46.369 7.47576C45.1049 7.47576 44.043 6.415 44.043 5.15219C44.043 3.88937 45.1049 2.82861 46.369 2.82861C47.6332 2.82861 48.695 3.88937 48.695 5.15219C48.695 6.415 47.6332 7.47576 46.369 7.47576ZM46.369 4.14194C45.8128 4.14194 45.3577 4.59655 45.3577 5.15219C45.3577 5.70782 45.8128 6.16244 46.369 6.16244C46.9252 6.16244 47.3803 5.70782 47.3803 5.15219C47.3803 4.59655 46.8747 4.14194 46.369 4.14194Z" fill="#FF842F"/>
<path d="M4.04528 54.5029C1.82038 54.5029 0 52.6844 0 50.4619C0 48.2393 1.82038 46.4209 4.04528 46.4209C6.27019 46.4209 8.09057 48.2393 8.09057 50.4619C8.09057 52.6844 6.27019 54.5029 4.04528 54.5029ZM4.04528 47.7847C2.57887 47.7847 1.36528 48.997 1.36528 50.4619C1.36528 51.9268 2.57887 53.1391 4.04528 53.1391C5.5117 53.1391 6.72528 51.9268 6.72528 50.4619C6.77585 48.997 5.56226 47.7847 4.04528 47.7847Z" fill="#FF842F"/>
<path d="M64.4212 30.0551C63.0053 30.0551 61.8423 28.8933 61.8423 27.479C61.8423 26.0646 63.0053 24.9028 64.4212 24.9028C65.837 24.9028 67 26.0646 67 27.479C67 28.8933 65.837 30.0551 64.4212 30.0551ZM64.4212 26.1656C63.7132 26.1656 63.157 26.7213 63.157 27.4285C63.157 28.1356 63.7132 28.6913 64.4212 28.6913C65.1291 28.6913 65.6853 28.1356 65.6853 27.4285C65.6853 26.7213 65.1291 26.1656 64.4212 26.1656Z" fill="#FF842F"/>
<path d="M15.018 59.8066C13.855 59.8066 12.9448 58.8468 12.9448 57.7356C12.9448 56.5738 13.9056 55.6646 15.018 55.6646C16.1305 55.6646 17.0912 56.6243 17.0912 57.7356C17.0912 58.8974 16.1305 59.8066 15.018 59.8066ZM15.018 56.9779C14.6135 56.9779 14.2595 57.3315 14.2595 57.7356C14.2595 58.1397 14.6135 58.4933 15.018 58.4933C15.4226 58.4933 15.7765 58.1397 15.7765 57.7356C15.7765 57.281 15.4226 56.9779 15.018 56.9779Z" fill="#FF842F"/>
<path d="M8.44446 61.6759C7.38257 61.6759 6.52295 60.8171 6.52295 59.7564C6.52295 58.6956 7.38257 57.8369 8.44446 57.8369C9.50635 57.8369 10.366 58.6956 10.366 59.7564C10.366 60.8171 9.50635 61.6759 8.44446 61.6759ZM8.44446 59.2007C8.14106 59.2007 7.83767 59.4533 7.83767 59.8069C7.83767 60.11 8.0905 60.413 8.44446 60.413C8.74786 60.413 9.05125 60.1605 9.05125 59.8069C9.05125 59.4533 8.74786 59.2007 8.44446 59.2007Z" fill="#FF842F"/>
<path d="M11.4786 15.3558C9.456 15.3558 7.83789 13.7394 7.83789 11.7189C7.83789 9.69843 9.456 8.08203 11.4786 8.08203C13.5013 8.08203 15.1194 9.69843 15.1194 11.7189C15.1194 13.7394 13.5013 15.3558 11.4786 15.3558ZM11.4786 9.39535C10.2145 9.39535 9.15261 10.4561 9.15261 11.7189C9.15261 12.9817 10.2145 14.0425 11.4786 14.0425C12.7428 14.0425 13.8047 12.9817 13.8047 11.7189C13.8047 10.4561 12.7428 9.39535 11.4786 9.39535Z" fill="#FF842F"/>
<path d="M19.5691 14.9012C18.4061 14.9012 17.4453 13.9415 17.4453 12.7797C17.4453 11.6179 18.4061 10.6582 19.5691 10.6582C20.7321 10.6582 21.6929 11.6179 21.6929 12.7797C21.6929 13.9415 20.7321 14.9012 19.5691 14.9012ZM19.5691 11.9715C19.114 11.9715 18.76 12.3251 18.76 12.7797C18.76 13.2343 19.114 13.5879 19.5691 13.5879C20.0242 13.5879 20.3781 13.2343 20.3781 12.7797C20.3781 12.3251 20.0242 11.9715 19.5691 11.9715Z" fill="#FF842F"/>
<path d="M17.0409 8.08206C15.979 8.08206 15.0688 7.22335 15.0688 6.11208C15.0688 5.0008 15.9285 4.14209 17.0409 4.14209C18.1534 4.14209 19.013 5.0008 19.013 6.11208C19.013 7.22335 18.1534 8.08206 17.0409 8.08206ZM17.0409 5.50593C16.687 5.50593 16.3836 5.809 16.3836 6.16259C16.3836 6.51617 16.687 6.81925 17.0409 6.81925C17.3949 6.81925 17.6983 6.51617 17.6983 6.16259C17.6983 5.809 17.3949 5.50593 17.0409 5.50593Z" fill="#FF842F"/>
<path d="M35.5482 10.0521C35.2953 10.0521 35.0425 9.90057 34.9414 9.69852L31.5029 2.42473C31.3512 2.07114 31.5029 1.71755 31.8063 1.5155C32.1602 1.36397 32.5142 1.5155 32.7165 1.81858L36.155 9.09237C36.3066 9.44596 36.155 9.79954 35.8516 10.0016C35.7504 10.0016 35.6493 10.0521 35.5482 10.0521Z" fill="#FF842F"/>
<path d="M25.3336 10.1024C25.0807 10.1024 24.8279 9.95091 24.7268 9.74886L22.957 6.06145C22.8053 5.70786 22.957 5.35427 23.2604 5.15222C23.6143 5.00068 23.9683 5.15222 24.1706 5.4553L25.9404 9.14271C26.0921 9.49629 25.9404 9.84988 25.637 10.0519C25.5358 10.1024 25.4347 10.1024 25.3336 10.1024Z" fill="#FF842F"/>
<path d="M32.1092 14.0423C31.8564 14.0423 31.6035 13.8908 31.5024 13.6382L27.2549 4.24291C27.1032 3.88932 27.2549 3.53573 27.6088 3.3842C27.9628 3.23266 28.3168 3.3842 28.4684 3.73778L32.716 13.1331C32.8677 13.4867 32.716 13.8403 32.362 13.9918C32.3115 14.0423 32.2103 14.0423 32.1092 14.0423Z" fill="#FF842F"/>
</svg>
