<svg width="39" height="25" viewBox="0 0 39 25" fill="none" xmlns="http://www.w3.org/2000/svg">
<path d="M35.2436 3.09355H35.0984V2.87152C35.0984 2.1125 34.7708 1.38436 34.1872 0.846265C33.6036 0.308173 32.8114 0.00391246 31.9839 0L3.13062 0C2.30032 0 1.50404 0.302534 0.916936 0.841049C0.329832 1.37956 0 2.10995 0 2.87152L0 19.0349C0 19.412 0.0809758 19.7854 0.238304 20.1338C0.395632 20.4822 0.626232 20.7988 0.916936 21.0654C1.20764 21.3321 1.55276 21.5436 1.93258 21.6879C2.3124 21.8322 2.7195 21.9065 3.13062 21.9065H3.37267V22.0397C3.37267 22.8248 3.71271 23.5778 4.31797 24.1329C4.92323 24.6881 5.74414 25 6.60011 25H35.2436C36.0996 25 36.9205 24.6881 37.5258 24.1329C38.131 23.5778 38.4711 22.8248 38.4711 22.0397V6.05388C38.4711 5.26875 38.131 4.51578 37.5258 3.96061C36.9205 3.40544 36.0996 3.09355 35.2436 3.09355ZM1.61372 5.15098H33.5008V8.20012H1.61372V5.15098ZM3.13062 1.48017H31.9839C32.3862 1.48017 32.7721 1.62675 33.0565 1.88768C33.341 2.14861 33.5008 2.50251 33.5008 2.87152V3.67081H1.61372V2.87152C1.61372 2.50251 1.77353 2.14861 2.05801 1.88768C2.34248 1.62675 2.72831 1.48017 3.13062 1.48017ZM1.61372 19.0349V9.68028H33.5008V19.0349C33.5008 19.4039 33.341 19.7578 33.0565 20.0188C32.7721 20.2797 32.3862 20.4263 31.9839 20.4263H3.13062C2.72831 20.4263 2.34248 20.2797 2.05801 20.0188C1.77353 19.7578 1.61372 19.4039 1.61372 19.0349ZM36.8574 21.9953C36.8574 22.3878 36.6873 22.7643 36.3847 23.0419C36.0821 23.3195 35.6716 23.4754 35.2436 23.4754H6.60011C6.17213 23.4754 5.76167 23.3195 5.45904 23.0419C5.15641 22.7643 4.98639 22.3878 4.98639 21.9953V21.9065H31.9839C32.395 21.9065 32.8021 21.8322 33.182 21.6879C33.5618 21.5436 33.9069 21.3321 34.1976 21.0654C34.4883 20.7988 34.7189 20.4822 34.8762 20.1338C35.0336 19.7854 35.1145 19.412 35.1145 19.0349V4.57371H35.2598C35.6878 4.57371 36.0982 4.72966 36.4008 5.00724C36.7035 5.28483 36.8735 5.66131 36.8735 6.05388L36.8574 21.9953Z" fill="#006EAC"/>
</svg>
