<svg width="38" height="25" viewBox="0 0 38 25" fill="none" xmlns="http://www.w3.org/2000/svg">
<path d="M24.9478 9H22.5578C22.4172 9 22.2766 9.14625 22.2063 9.29251L21.2222 15.7277C21.2222 15.8739 21.2925 15.9471 21.4331 15.9471H22.6984C22.8389 15.9471 22.9092 15.8739 22.9092 15.7277L23.1904 13.8995C23.1904 13.7533 23.331 13.607 23.5419 13.607H24.3151C25.9319 13.607 26.8457 12.8026 27.0566 11.1938C27.1972 10.5357 27.0566 9.95065 26.7755 9.58502C26.3537 9.21938 25.721 9 24.9478 9ZM25.229 11.4132C25.0884 12.2907 24.4557 12.2907 23.8231 12.2907H23.4013L23.6825 10.6088C23.6825 10.5357 23.7528 10.4625 23.8934 10.4625H24.034C24.4557 10.4625 24.8775 10.4625 25.0884 10.755C25.229 10.8282 25.229 11.0476 25.229 11.4132Z" fill="#2F2F2F"/>
<path d="M7.72562 9H5.3356C5.19501 9 5.05442 9.14625 4.98413 9.29251L4 15.7277C4 15.8739 4.0703 15.9471 4.21089 15.9471H5.3356C5.47619 15.9471 5.61678 15.8008 5.68707 15.6546L5.96825 13.8995C5.96825 13.7533 6.10884 13.607 6.31973 13.607H7.09297C8.70975 13.607 9.62358 12.8026 9.83446 11.1938C9.97505 10.5357 9.83446 9.95065 9.55328 9.58502C9.13152 9.21938 8.56916 9 7.72562 9ZM8.0068 11.4132C7.86621 12.2907 7.23356 12.2907 6.60091 12.2907H6.24943L6.53061 10.6088C6.53061 10.5357 6.6009 10.4625 6.74149 10.4625H6.88208C7.30385 10.4625 7.72562 10.4625 7.93651 10.755C8.0068 10.8282 8.0771 11.0476 8.0068 11.4132Z" fill="#2F2F2F"/>
<path d="M14.966 11.3401H13.8413C13.771 11.3401 13.6304 11.4132 13.6304 11.4864L13.5601 11.852L13.4898 11.7057C13.2086 11.3401 12.7166 11.1938 12.1542 11.1938C10.8889 11.1938 9.7642 12.2176 9.55331 13.607C9.41272 14.3383 9.62361 14.9965 9.97508 15.4352C10.3266 15.874 10.8186 16.0202 11.4513 16.0202C12.5057 16.0202 13.0681 15.3621 13.0681 15.3621L12.9978 15.7277C12.9978 15.874 13.0681 15.9471 13.2086 15.9471H14.2631C14.4037 15.9471 14.5442 15.8009 14.6145 15.6546L15.2472 11.5595C15.1769 11.4864 15.0363 11.3401 14.966 11.3401ZM13.3492 13.6802C13.2086 14.3383 12.7166 14.8502 12.0136 14.8502C11.6622 14.8502 11.381 14.7039 11.2404 14.5577C11.0998 14.3383 11.0295 14.0458 11.0295 13.6802C11.0998 13.022 11.6622 12.5101 12.2948 12.5101C12.6463 12.5101 12.8572 12.6564 13.0681 12.8026C13.2789 13.022 13.3492 13.3877 13.3492 13.6802Z" fill="#2F2F2F"/>
<path d="M32.1179 11.3401H30.9932C30.9229 11.3401 30.7823 11.4132 30.7823 11.4864L30.712 11.852L30.6417 11.7057C30.3605 11.3401 29.8684 11.1938 29.3061 11.1938C28.0408 11.1938 26.9161 12.2176 26.7052 13.607C26.5646 14.3383 26.7755 14.9965 27.1269 15.4352C27.4784 15.874 27.9705 16.0202 28.6031 16.0202C29.6576 16.0202 30.2199 15.3621 30.2199 15.3621L30.1496 15.7277C30.1496 15.874 30.2199 15.9471 30.3605 15.9471H31.4149C31.5555 15.9471 31.6961 15.8009 31.7664 15.6546L32.399 11.5595C32.3288 11.4864 32.2585 11.3401 32.1179 11.3401ZM30.5011 13.6802C30.3605 14.3383 29.8684 14.8502 29.1655 14.8502C28.814 14.8502 28.5328 14.7039 28.3922 14.5577C28.2517 14.3383 28.1814 14.0458 28.1814 13.6802C28.2517 13.022 28.814 12.5101 29.4467 12.5101C29.7981 12.5101 30.009 12.6564 30.2199 12.8026C30.5011 13.022 30.5714 13.3877 30.5011 13.6802Z" fill="#2F2F2F"/>
<path d="M21.0816 11.3398H19.8866C19.746 11.3398 19.6757 11.413 19.6054 11.4861L18.059 13.9724L17.356 11.6324C17.2857 11.4861 17.2154 11.413 17.0045 11.413H15.8798C15.7392 11.413 15.6689 11.5592 15.6689 11.7055L16.9342 15.5812L15.7392 17.3362C15.6689 17.4825 15.7392 17.7019 15.8798 17.7019H17.0045C17.1451 17.7019 17.2154 17.6287 17.2857 17.5556L21.1519 11.7786C21.3628 11.5592 21.2222 11.3398 21.0816 11.3398Z" fill="#2F2F2F"/>
<path d="M33.4534 9.21938L32.4692 15.8008C32.4692 15.9471 32.5395 16.0202 32.6801 16.0202H33.6642C33.8048 16.0202 33.9454 15.874 34.0157 15.7277L34.9999 9.2925C34.9999 9.14625 34.9296 9.07312 34.789 9.07312H33.6642C33.594 8.99999 33.5237 9.07312 33.4534 9.21938Z" fill="#2F2F2F"/>
<rect x="0.75" y="0.75" width="36.5" height="23.5" rx="1.25" stroke="#2F2F2F" stroke-width="1.5"/>
</svg>
