<svg width="38" height="25" viewBox="0 0 38 25" fill="none" xmlns="http://www.w3.org/2000/svg">
<rect x="0.75" y="0.75" width="36.5" height="23.5" rx="1.25" stroke="#2F2F2F" stroke-width="1.5"/>
<path d="M10.0639 16.1167C9.37037 16.1167 8.74167 15.9676 8.17778 15.6694C7.62037 15.3648 7.17963 14.9468 6.85556 14.4153C6.53796 13.8773 6.37917 13.2713 6.37917 12.5972C6.37917 11.9231 6.53796 11.3204 6.85556 10.7889C7.17963 10.2509 7.62037 9.83287 8.17778 9.53472C8.74167 9.23009 9.37361 9.07778 10.0736 9.07778C10.6634 9.07778 11.1949 9.18148 11.6681 9.38889C12.1477 9.5963 12.5495 9.89444 12.8736 10.2833L11.8625 11.2167C11.4023 10.6852 10.8319 10.4194 10.1514 10.4194C9.73009 10.4194 9.35417 10.5134 9.02361 10.7014C8.69306 10.8829 8.4338 11.1389 8.24583 11.4694C8.06435 11.8 7.97361 12.1759 7.97361 12.5972C7.97361 13.0185 8.06435 13.3944 8.24583 13.725C8.4338 14.0556 8.69306 14.3148 9.02361 14.5028C9.35417 14.6843 9.73009 14.775 10.1514 14.775C10.8319 14.775 11.4023 14.506 11.8625 13.9681L12.8736 14.9014C12.5495 15.2968 12.1477 15.5981 11.6681 15.8056C11.1884 16.013 10.6537 16.1167 10.0639 16.1167ZM15.902 10.6917C16.7122 10.6917 17.3344 10.8861 17.7687 11.275C18.2029 11.6574 18.4201 12.2375 18.4201 13.0153V16H17.0006V15.3486C16.7154 15.8347 16.184 16.0778 15.4062 16.0778C15.0043 16.0778 14.6543 16.0097 14.3562 15.8736C14.0645 15.7375 13.8409 15.5495 13.6853 15.3097C13.5298 15.0699 13.452 14.7977 13.452 14.4931C13.452 14.0069 13.6335 13.6245 13.9965 13.3458C14.3659 13.0671 14.933 12.9278 15.6978 12.9278H16.9034C16.9034 12.5972 16.8029 12.3444 16.602 12.1694C16.4011 11.988 16.0997 11.8972 15.6978 11.8972C15.4191 11.8972 15.1437 11.9426 14.8715 12.0333C14.6057 12.1176 14.3789 12.2343 14.1909 12.3833L13.6465 11.3236C13.9316 11.1227 14.2719 10.9671 14.6673 10.8569C15.0691 10.7468 15.4807 10.6917 15.902 10.6917ZM15.7853 15.0569C16.0446 15.0569 16.2747 14.9986 16.4756 14.8819C16.6765 14.7588 16.8191 14.5806 16.9034 14.3472V13.8125H15.8631C15.2409 13.8125 14.9298 14.0167 14.9298 14.425C14.9298 14.6194 15.0043 14.775 15.1534 14.8917C15.309 15.0019 15.5196 15.0569 15.7853 15.0569ZM21.5524 16.0778C21.1182 16.0778 20.6936 16.0259 20.2788 15.9222C19.864 15.812 19.5335 15.6759 19.2872 15.5139L19.7927 14.425C20.0261 14.5741 20.308 14.6972 20.6386 14.7944C20.9691 14.8852 21.2932 14.9306 21.6108 14.9306C22.2524 14.9306 22.5733 14.7718 22.5733 14.4542C22.5733 14.3051 22.4858 14.1981 22.3108 14.1333C22.1358 14.0685 21.8668 14.0134 21.5038 13.9681C21.0761 13.9032 20.7228 13.8287 20.4441 13.7444C20.1654 13.6602 19.9223 13.5111 19.7149 13.2972C19.514 13.0833 19.4136 12.7787 19.4136 12.3833C19.4136 12.0528 19.5075 11.7611 19.6955 11.5083C19.8899 11.2491 20.1686 11.0481 20.5316 10.9056C20.9011 10.763 21.3353 10.6917 21.8344 10.6917C22.2038 10.6917 22.57 10.7338 22.933 10.8181C23.3024 10.8958 23.6071 11.006 23.8469 11.1486L23.3413 12.2278C22.8811 11.9685 22.3788 11.8389 21.8344 11.8389C21.5103 11.8389 21.2673 11.8843 21.1052 11.975C20.9432 12.0657 20.8622 12.1824 20.8622 12.325C20.8622 12.487 20.9497 12.6005 21.1247 12.6653C21.2997 12.7301 21.5784 12.7917 21.9608 12.85C22.3886 12.9213 22.7386 12.9991 23.0108 13.0833C23.283 13.1611 23.5196 13.3069 23.7205 13.5208C23.9214 13.7347 24.0219 14.0329 24.0219 14.4153C24.0219 14.7394 23.9247 15.0278 23.7302 15.2806C23.5358 15.5333 23.2506 15.731 22.8747 15.8736C22.5052 16.0097 22.0645 16.0778 21.5524 16.0778ZM28.1368 10.6917C28.785 10.6917 29.3067 10.8861 29.7021 11.275C30.1039 11.6639 30.3049 12.2407 30.3049 13.0056V16H28.7882V13.2389C28.7882 12.8241 28.6975 12.5162 28.516 12.3153C28.3345 12.1079 28.072 12.0042 27.7285 12.0042C27.3461 12.0042 27.0414 12.1241 26.8146 12.3639C26.5877 12.5972 26.4743 12.9472 26.4743 13.4139V16H24.9576V8.78611H26.4743V11.3139C26.6752 11.113 26.9183 10.9606 27.2035 10.8569C27.4887 10.7468 27.7998 10.6917 28.1368 10.6917Z" fill="#2F2F2F"/>
</svg>
