<svg width="15" height="15" viewBox="0 0 15 15" fill="none" xmlns="http://www.w3.org/2000/svg">
<path d="M9.54 0.75C10.89 0.75 11.565 0.75 12.3 0.975C13.095 1.26 13.725 1.89 14.01 2.685C14.25 3.435 14.25 4.11 14.25 5.46V9.54C14.25 10.89 14.25 11.565 14.025 12.3C13.74 13.095 13.11 13.725 12.315 14.01C11.58 14.25 10.905 14.25 9.54 14.25H5.46C4.11 14.25 3.435 14.25 2.7 14.025C1.905 13.725 1.275 13.11 0.99 12.3C0.75 11.58 0.75 10.905 0.75 9.54V5.46C0.75 4.11 0.75 3.435 0.975 2.7C1.275 1.905 1.905 1.275 2.7 0.99C3.435 0.75 4.11 0.75 5.46 0.75H9.54Z" fill="#3E8FC1"/>
<path d="M3.85504 6.64501C3.36004 5.74501 3.16504 5.01001 3.16504 4.51501C3.16504 4.02001 3.28504 3.88501 3.40504 3.76501C3.52504 3.64501 4.08004 3.315 4.18504 3.24C4.27504 3.18 4.63504 3.045 4.86004 3.375C5.08504 3.70501 5.50504 4.35001 5.80504 4.78501C6.27004 5.40001 5.89504 5.67001 5.77504 5.83501C5.55004 6.13501 5.43004 6.21001 5.43004 6.57001C5.43004 6.93001 6.45004 7.98001 6.69004 8.23501C6.93004 8.49001 7.95004 9.37501 8.26504 9.43501C8.58004 9.48001 9.01504 9.15001 9.10504 9.06001C9.57004 8.70001 9.82504 8.97001 10.035 9.09001C10.245 9.21001 11.205 9.81001 11.505 10.005C11.79 10.2 11.76 10.515 11.76 10.515C11.76 10.515 11.565 11.1 11.115 11.535C11.01 11.64 10.815 11.775 10.35 11.775C9.88504 11.775 9.37504 11.685 8.17504 11.025C7.20004 10.485 6.27004 9.64501 5.77504 9.15001C5.28004 8.67001 4.42504 7.68001 3.85504 6.64501Z" fill="white"/>
</svg>
